<svg xmlns="http://www.w3.org/2000/svg" viewBox="0 0 720 720">
    <g fill="none" stroke="#ffcc80" stroke-width="2">
        <path
            d="M190.75 259.68q-11.89-2.56-23.93-4.29c-35.27-5.05-79.15 2.55-88.72 43.76q-3.34 14.39.19 29.27c5.96 25.16 25.4 38.24 50.41 39.66q38.41 2.19 64.45-27.3a1 1 0 0 1 1.61.16q1.94 3.31 4.58 8.48 2.95 5.78 7.63 10.72c4.18 4.4 7.57 5.54 12.85 2.17q6.83-4.36 13.44-9.08 5.38-3.83 2.6-9.55c-6.16-12.64-9.59-19.65-9.59-33.43q.01-33.17-.05-66.33c-.07-39.33-13.63-64.82-55.09-70.02q-39.7-4.97-75.86 13.01c-4.12 2.05-6.04 4.51-6.15 9q-.22 8.78.14 14.25c.52 7.77 9.48 3.66 13.19 2.08 19.58-8.38 42.45-13.39 63.57-8.7 8.98 1.99 17.02 6.21 20.96 14.25q5.12 10.46 5.12 24.72.01 8.09-.14 16.21a1 1 0 0 1-1.21.96M524.27 257.89c8.17 10.3 18.65 16.46 31.25 20.59q25.83 8.47 31 9.96c12.82 3.71 28.06 10.57 27.42 26.52-1.38 34.02-56.09 26.62-75.92 20.71-5.86-1.75-12.33-4.55-18.43-7.02q-4.82-1.95-6.82 1.31c-1.75 2.84-1.47 16.92-.29 20.13 1.93 5.24 9.23 8.46 14.11 10.26 33.76 12.5 83.52 15.1 109.6-15.43 10.52-12.31 14.26-30.31 10.55-46-5.82-24.6-25.07-32.62-47.25-39.9q-13.26-4.35-26.46-8.85c-12.03-4.1-24.72-10.04-24.95-24.62-.49-32.25 50.85-25.33 68.37-19.97q2.83.87 12.53 4.88c5.45 2.26 8.63 1.07 8.94-5.29.21-4.37.87-12.17-1.23-16.03-3.48-6.37-13.38-9.2-20.18-11.18-29.33-8.56-66.16-8.27-89 15.55-17.1 17.82-18.25 45.45-3.24 64.38M371.52 221.73q14.98 62.68 30.37 126.4c1.76 7.3 2.67 15.28 11.62 15.33q10.73.05 21.5-.15 7.43-.14 9.48-6.61 11.9-37.51 52.86-170.41 1.34-4.37-1.22-6.62c-3.01-2.65-19.05-1.41-23.55-1.31-9.43.21-10.54 5.34-12.56 13.15q-17.37 67.35-34.35 133.81-.81 3.18-1.55-.02-15.7-67.7-31.58-135.15c-1.71-7.29-3.24-11.76-11.28-11.81q-16.17-.1-20.22.1-7.95.38-9.92 8.73-16.09 68.04-31.89 136.29-.75 3.23-1.56.01-16.2-64.55-32.84-130c-2.2-8.68-3.22-15.27-12.76-15.24l-20.83.08q-5.65.02-5.4 5.65.09 2.02.67 3.96 25.11 83.85 50.53 167.77c2.03 6.7 6.06 7.78 12.89 7.82q8.65.04 17.34.17 8.89.14 10.76-7.67 16.13-67.07 31.93-134.27.77-3.29 1.56-.01M557.64 433.97c1.21 3.08 4.1 2.82 6.93 2.42q17.32-2.49 41.93-3.62c10.75-.49 27.77-.81 36.69 6.28a1.09 1.08 10.1 0 1 .33.47c3.4 10.34.19 23.18-2.81 33.3q-6.57 22.16-15.42 43.58c-3.42 8.24 3.05 9.52 8.16 5.09 24.87-21.6 38.23-56.47 40.68-88.49q.54-6.96-.82-13.77-.52-2.56-2.81-3.81c-4.12-2.25-8.33-3.77-13.18-4.67-30.68-5.74-65.14-2.21-92.33 13.93-2.69 1.6-8.71 5.82-7.35 9.29"
            vector-effect="non-scaling-stroke" />
        <path
            d="M53.99 431.81C175.46 541.28 343.3 576.5 499.5 528.27c40.69-12.56 80.35-31 114.76-56.26 11.56-8.49 1.72-21.1-9.93-16.18-80.86 34.07-169.91 51.55-257.75 48.04q-153.73-6.14-287.31-82.34c-4.51-2.58-10.43.63-8.53 6.07q.66 1.88 3.25 4.21M112.65 309.51c-.69 22.07 12.48 33.19 33.91 31.23 21.73-1.98 41.01-13.33 44.77-36.45q1.06-6.46.64-19.96a1.02 1 5.7 0 0-.78-.94c-24.16-5.61-77.3-13.49-78.54 26.12"
            vector-effect="non-scaling-stroke" />
    </g>
    <path fill="#f90"
        d="M0 0h720v720H0V0Zm190.75 259.68q-11.89-2.56-23.93-4.29c-35.27-5.05-79.15 2.55-88.72 43.76q-3.34 14.39.19 29.27c5.96 25.16 25.4 38.24 50.41 39.66q38.41 2.19 64.45-27.3a1 1 0 0 1 1.61.16q1.94 3.31 4.58 8.48 2.95 5.78 7.63 10.72c4.18 4.4 7.57 5.54 12.85 2.17q6.83-4.36 13.44-9.08 5.38-3.83 2.6-9.55c-6.16-12.64-9.59-19.65-9.59-33.43q.01-33.17-.05-66.33c-.07-39.33-13.63-64.82-55.09-70.02q-39.7-4.97-75.86 13.01c-4.12 2.05-6.04 4.51-6.15 9q-.22 8.78.14 14.25c.52 7.77 9.48 3.66 13.19 2.08 19.58-8.38 42.45-13.39 63.57-8.7 8.98 1.99 17.02 6.21 20.96 14.25q5.12 10.46 5.12 24.72.01 8.09-.14 16.21a1 1 0 0 1-1.21.96Zm333.52-1.79c8.17 10.3 18.65 16.46 31.25 20.59q25.83 8.47 31 9.96c12.82 3.71 28.06 10.57 27.42 26.52-1.38 34.02-56.09 26.62-75.92 20.71-5.86-1.75-12.33-4.55-18.43-7.02q-4.82-1.95-6.82 1.31c-1.75 2.84-1.47 16.92-.29 20.13 1.93 5.24 9.23 8.46 14.11 10.26 33.76 12.5 83.52 15.1 109.6-15.43 10.52-12.31 14.26-30.31 10.55-46-5.82-24.6-25.07-32.62-47.25-39.9q-13.26-4.35-26.46-8.85c-12.03-4.1-24.72-10.04-24.95-24.62-.49-32.25 50.85-25.33 68.37-19.97q2.83.87 12.53 4.88c5.45 2.26 8.63 1.07 8.94-5.29.21-4.37.87-12.17-1.23-16.03-3.48-6.37-13.38-9.2-20.18-11.18-29.33-8.56-66.16-8.27-89 15.55-17.1 17.82-18.25 45.45-3.24 64.38Zm-152.75-36.16q14.98 62.68 30.37 126.4c1.76 7.3 2.67 15.28 11.62 15.33q10.73.05 21.5-.15 7.43-.14 9.48-6.61 11.9-37.51 52.86-170.41 1.34-4.37-1.22-6.62c-3.01-2.65-19.05-1.41-23.55-1.31-9.43.21-10.54 5.34-12.56 13.15q-17.37 67.35-34.35 133.81-.81 3.18-1.55-.02-15.7-67.7-31.58-135.15c-1.71-7.29-3.24-11.76-11.28-11.81q-16.17-.1-20.22.1-7.95.38-9.92 8.73-16.09 68.04-31.89 136.29-.75 3.23-1.56.01-16.2-64.55-32.84-130c-2.2-8.68-3.22-15.27-12.76-15.24l-20.83.08q-5.65.02-5.4 5.65.09 2.02.67 3.96 25.11 83.85 50.53 167.77c2.03 6.7 6.06 7.78 12.89 7.82q8.65.04 17.34.17 8.89.14 10.76-7.67 16.13-67.07 31.93-134.27.77-3.29 1.56-.01Zm186.12 212.24c1.21 3.08 4.1 2.82 6.93 2.42q17.32-2.49 41.93-3.62c10.75-.49 27.77-.81 36.69 6.28a1.09 1.08 10.1 0 1 .33.47c3.4 10.34.19 23.18-2.81 33.3q-6.57 22.16-15.42 43.58c-3.42 8.24 3.05 9.52 8.16 5.09 24.87-21.6 38.23-56.47 40.68-88.49q.54-6.96-.82-13.77-.52-2.56-2.81-3.81c-4.12-2.25-8.33-3.77-13.18-4.67-30.68-5.74-65.14-2.21-92.33 13.93-2.69 1.6-8.71 5.82-7.35 9.29Zm-503.65-2.16C175.46 541.28 343.3 576.5 499.5 528.27c40.69-12.56 80.35-31 114.76-56.26 11.56-8.49 1.72-21.1-9.93-16.18-80.86 34.07-169.91 51.55-257.75 48.04q-153.73-6.14-287.31-82.34c-4.51-2.58-10.43.63-8.53 6.07q.66 1.88 3.25 4.21Z" />
    <path fill="#fff"
        d="M191.96 258.72q.15-8.12.14-16.21 0-14.26-5.12-24.72c-3.94-8.04-11.98-12.26-20.96-14.25-21.12-4.69-43.99.32-63.57 8.7-3.71 1.58-12.67 5.69-13.19-2.08q-.36-5.47-.14-14.25c.11-4.49 2.03-6.95 6.15-9q36.16-17.98 75.86-13.01c41.46 5.2 55.02 30.69 55.09 70.02q.06 33.16.05 66.33c0 13.78 3.43 20.79 9.59 33.43q2.78 5.72-2.6 9.55-6.61 4.72-13.44 9.08c-5.28 3.37-8.67 2.23-12.85-2.17q-4.68-4.94-7.63-10.72-2.64-5.17-4.58-8.48a1 1 0 0 0-1.61-.16q-26.04 29.49-64.45 27.3c-25.01-1.42-44.45-14.5-50.41-39.66q-3.53-14.88-.19-29.27c9.57-41.21 53.45-48.81 88.72-43.76q12.04 1.73 23.93 4.29a1 1 0 0 0 1.21-.96Zm-79.31 50.79c-.69 22.07 12.48 33.19 33.91 31.23 21.73-1.98 41.01-13.33 44.77-36.45q1.06-6.46.64-19.96a1.02 1 5.7 0 0-.78-.94c-24.16-5.61-77.3-13.49-78.54 26.12ZM524.27 257.89c-15.01-18.93-13.86-46.56 3.24-64.38 22.84-23.82 59.67-24.11 89-15.55 6.8 1.98 16.7 4.81 20.18 11.18 2.1 3.86 1.44 11.66 1.23 16.03-.31 6.36-3.49 7.55-8.94 5.29q-9.7-4.01-12.53-4.88c-17.52-5.36-68.86-12.28-68.37 19.97.23 14.58 12.92 20.52 24.95 24.62q13.2 4.5 26.46 8.85c22.18 7.28 41.43 15.3 47.25 39.9 3.71 15.69-.03 33.69-10.55 46-26.08 30.53-75.84 27.93-109.6 15.43-4.88-1.8-12.18-5.02-14.11-10.26-1.18-3.21-1.46-17.29.29-20.13q2-3.26 6.82-1.31c6.1 2.47 12.57 5.27 18.43 7.02 19.83 5.91 74.54 13.31 75.92-20.71.64-15.95-14.6-22.81-27.42-26.52q-5.17-1.49-31-9.96c-12.6-4.13-23.08-10.29-31.25-20.59ZM371.52 221.73q-.79-3.28-1.56.01-15.8 67.2-31.93 134.27-1.87 7.81-10.76 7.67-8.69-.13-17.34-.17c-6.83-.04-10.86-1.12-12.89-7.82q-25.42-83.92-50.53-167.77-.58-1.94-.67-3.96-.25-5.63 5.4-5.65l20.83-.08c9.54-.03 10.56 6.56 12.76 15.24q16.64 65.45 32.84 130 .81 3.22 1.56-.01 15.8-68.25 31.89-136.29 1.97-8.35 9.92-8.73 4.05-.2 20.22-.1c8.04.05 9.57 4.52 11.28 11.81q15.88 67.45 31.58 135.15.74 3.2 1.55.02 16.98-66.46 34.35-133.81c2.02-7.81 3.13-12.94 12.56-13.15 4.5-.1 20.54-1.34 23.55 1.31q2.56 2.25 1.22 6.62-40.96 132.9-52.86 170.41-2.05 6.47-9.48 6.61-10.77.2-21.5.15c-8.95-.05-9.86-8.03-11.62-15.33q-15.39-63.72-30.37-126.4Z" />
    <path fill="#f90"
        d="M146.56 340.74c-21.43 1.96-34.6-9.16-33.91-31.23 1.24-39.61 54.38-31.73 78.54-26.12a1.02 1 5.7 0 1 .78.94q.42 13.5-.64 19.96c-3.76 23.12-23.04 34.47-44.77 36.45Z" />
    <path fill="#fff"
        d="M557.64 433.97c-1.36-3.47 4.66-7.69 7.35-9.29 27.19-16.14 61.65-19.67 92.33-13.93 4.85.9 9.06 2.42 13.18 4.67q2.29 1.25 2.81 3.81 1.36 6.81.82 13.77c-2.45 32.02-15.81 66.89-40.68 88.49-5.11 4.43-11.58 3.15-8.16-5.09q8.85-21.42 15.42-43.58c3-10.12 6.21-22.96 2.81-33.3a1.09 1.08 10.1 0 0-.33-.47c-8.92-7.09-25.94-6.77-36.69-6.28q-24.61 1.13-41.93 3.62c-2.83.4-5.72.66-6.93-2.42Z" />
    <path fill="#fff"
        d="M499.5 528.27c-156.2 48.23-324.04 13.01-445.51-96.46q-2.59-2.33-3.25-4.21c-1.9-5.44 4.02-8.65 8.53-6.07q133.58 76.2 287.31 82.34c87.84 3.51 176.89-13.97 257.75-48.04 11.65-4.92 21.49 7.69 9.93 16.18-34.41 25.26-74.07 43.7-114.76 56.26Z" />
</svg>